<svg xmlns="http://www.w3.org/2000/svg" xmlns:xlink="http://www.w3.org/1999/xlink" version="1.1" x="0px" y="0px" viewBox="0 0 90 112.5" style="enable-background:new 0 0 90 90;" xml:space="preserve"><g><path d="M62.3,13.1h-6.2v-0.2c0-1.4-1.2-2.6-2.6-2.6h-4.6C48,7.2,45.3,5,42,5c-3.3,0-6,2.2-6.8,5.2h-4.7c-1.4,0-2.6,1.2-2.6,2.6   v0.2h-6.2c-3.8,0-7,3.1-7,7v51.6c0,3.8,3.1,7,7,7h26.7c-0.6-1.7-0.9-3.4-0.9-5.2H21.6c-1,0-1.7-0.8-1.7-1.7V20c0-1,0.8-1.7,1.7-1.7   h6.2v0.1c0,1.4,1.2,2.6,2.6,2.6h23c1.4,0,2.6-1.2,2.6-2.6v-0.1h6.2c1,0,1.7,0.8,1.7,1.7v36.7c1.8,0,3.6,0.3,5.2,0.9V20   C69.3,16.2,66.1,13.1,62.3,13.1z M42,13.9c-1,0-1.8-0.8-1.8-1.9s0.8-1.8,1.8-1.8c1,0,1.9,0.8,1.9,1.8S43,13.9,42,13.9z"/></g><g><path d="M64,62c-6.3,0-11.3,5.1-11.3,11.3c0,6.2,5.1,11.3,11.3,11.3s11.3-5.1,11.3-11.3C75.4,67.1,70.3,62,64,62z M68.9,75.1h-3.1   v3.1c0,1-0.8,1.7-1.7,1.7c-1,0-1.7-0.8-1.7-1.7v-3.1h-3.1c-1,0-1.7-0.8-1.7-1.7c0-1,0.8-1.7,1.7-1.7h3.1v-3.1c0-1,0.8-1.7,1.7-1.7   c1,0,1.7,0.8,1.7,1.7v3.1h3.1c1,0,1.7,0.8,1.7,1.7C70.6,74.3,69.9,75.1,68.9,75.1z"/></g><g><path d="M57.3,45.2H26.6c-1.4,0-2.6-1.2-2.6-2.6c0-1.4,1.2-2.6,2.6-2.6h30.8c1.4,0,2.6,1.2,2.6,2.6C60,44.1,58.8,45.2,57.3,45.2z"/></g><g><path d="M57.3,36.2H26.6c-1.4,0-2.6-1.2-2.6-2.6s1.2-2.6,2.6-2.6h30.8c1.4,0,2.6,1.2,2.6,2.6S58.8,36.2,57.3,36.2z"/></g><g><path d="M57.3,54.3H26.6c-1.4,0-2.6-1.2-2.6-2.6c0-1.4,1.2-2.6,2.6-2.6h30.8c1.4,0,2.6,1.2,2.6,2.6C60,53.1,58.8,54.3,57.3,54.3z"/></g><g><path d="M42,63.3H26.6c-1.4,0-2.6-1.2-2.6-2.6s1.2-2.6,2.6-2.6H42c1.4,0,2.6,1.2,2.6,2.6S43.4,63.3,42,63.3z"/></g><text x="0" y="105" fill="#000000" font-size="5px" font-weight="bold" font-family="'Helvetica Neue', Helvetica, Arial-Unicode, Arial, Sans-serif">Created by Piger</text><text x="0" y="110" fill="#000000" font-size="5px" font-weight="bold" font-family="'Helvetica Neue', Helvetica, Arial-Unicode, Arial, Sans-serif">from the Noun Project</text></svg>